<?xml version="1.0" encoding="utf-8"?>
<!-- Generator: Adobe Illustrator 22.1.0, SVG Export Plug-In . SVG Version: 6.00 Build 0)  -->
<svg version="1.1" id="Layer_1" xmlns="http://www.w3.org/2000/svg" xmlns:xlink="http://www.w3.org/1999/xlink" x="0px" y="0px"
	 viewBox="0 0 140 32" style="enable-background:new 0 0 140 32;" xml:space="preserve">
<style type="text/css">
	.st0{fill:#FFFFFF;}
</style>
<g>
	<path class="st0" d="M5.4,12h5.1v1.5H7v1.4h3.3v1.5H7V18h3.6v1.5H5.4V12z"/>
	<path class="st0" d="M12.8,12h1.9l1.9,4.9l0,0l1.9-4.9h1.8l-3.1,7.5h-1.3L12.8,12z"/>
	<path class="st0" d="M22.7,12h5.1v1.5h-3.5v1.4h3.3v1.5h-3.3V18H28v1.5h-5.3V12z"/>
	<path class="st0" d="M31,12h2.3l3.2,5.2l0,0V12h1.7v7.5H36l-3.3-5.4l0,0v5.4H31V12z"/>
	<path class="st0" d="M42.7,13.5h-2.1V12h6v1.5h-2.1v6.1h-1.7v-6.1H42.7z"/>
	<path class="st0" d="M50.8,16.3L48,12h2l1.6,2.8l1.7-2.8h2l-2.8,4.3v3.2h-1.7V16.3z"/>
</g>
<g>
	<path class="st0" d="M32.9,8.7l3.4-3.4c0.2-0.2,0.5-0.1,0.8,0.1c0.2,0.2,0.3,0.6,0.1,0.8l-3.4,3.4c-0.2,0.2-0.5,0.1-0.8-0.1
		C32.7,9.2,32.7,8.9,32.9,8.7z"/>
	<path class="st0" d="M27.1,9.6l-3.4-3.4c-0.2-0.2-0.1-0.5,0.1-0.8c0.2-0.2,0.6-0.3,0.8-0.1L28,8.7c0.2,0.2,0.1,0.5-0.1,0.8
		C27.7,9.7,27.3,9.7,27.1,9.6z"/>
	<path class="st0" d="M14.7,8.7l3.4-3.4c0.2-0.2,0.5-0.1,0.8,0.1c0.2,0.2,0.3,0.6,0.1,0.8l-3.4,3.4c-0.2,0.2-0.5,0.1-0.8-0.1
		C14.6,9.2,14.5,8.9,14.7,8.7z"/>
	<path class="st0" d="M9,9.6L5.6,6.2C5.4,6,5.5,5.7,5.7,5.4c0.2-0.2,0.6-0.3,0.8-0.1l3.4,3.4C10,8.9,10,9.2,9.7,9.4
		C9.5,9.7,9.2,9.7,9,9.6z"/>
	<path class="st0" d="M51,8.7l3.4-3.4c0.2-0.2,0.5-0.1,0.8,0.1c0.2,0.2,0.3,0.6,0.1,0.8l-3.4,3.4c-0.2,0.2-0.5,0.1-0.8-0.1
		C50.9,9.2,50.9,8.9,51,8.7z"/>
	<path class="st0" d="M45.3,9.6l-3.4-3.4c-0.2-0.2-0.1-0.5,0.1-0.8c0.2-0.2,0.6-0.3,0.8-0.1l3.4,3.4c0.2,0.2,0.1,0.5-0.1,0.8
		C45.8,9.7,45.5,9.7,45.3,9.6z"/>
</g>
</svg>
